HIERARCHY
ROOT joint_0
{
	OFFSET 0.000000 0.000000 0.000000
	CHANNELS 6 Xposition Yposition Zposition Zrotation Yrotation Xrotation 
	JOINT joint_1
	{
		OFFSET 5.091736 1.614004 124.993042
		CHANNELS 3 Zrotation Yrotation Xrotation
		JOINT joint_2
		{
			OFFSET -7.754517 4.363039 113.797974
			CHANNELS 3 Zrotation Yrotation Xrotation
			JOINT joint_3
			{
				OFFSET -8.706238 5.370684 113.558960
				CHANNELS 3 Zrotation Yrotation Xrotation
				JOINT joint_4
				{
					OFFSET 2.800659 5.843341 158.209106
					CHANNELS 3 Zrotation Yrotation Xrotation
					JOINT joint_5
					{
						OFFSET 20.525452 8.617594 92.185913
						CHANNELS 3 Zrotation Yrotation Xrotation
						End Site
						{
							OFFSET 0.000000 0.000000 0.000000
						}
					}
				}
				JOINT joint_6
				{
					OFFSET -4.183167 -30.671114 90.057007
					CHANNELS 3 Zrotation Yrotation Xrotation
					JOINT joint_7
					{
						OFFSET -24.729675 -138.200195 -6.097900
						CHANNELS 3 Zrotation Yrotation Xrotation
						JOINT joint_8
						{
							OFFSET 16.966858 -51.567780 -315.633057
							CHANNELS 3 Zrotation Yrotation Xrotation
							JOINT joint_9
							{
								OFFSET 129.835388 -40.459091 176.646973
								CHANNELS 3 Zrotation Yrotation Xrotation
								End Site
								{
									OFFSET 0.000000 0.000000 0.000000
								}
							}
						}
					}
				}
				JOINT joint_10
				{
					OFFSET 7.338745 37.199406 87.346069
					CHANNELS 3 Zrotation Yrotation Xrotation
					JOINT joint_11
					{
						OFFSET 20.327698 137.488367 -20.779053
						CHANNELS 3 Zrotation Yrotation Xrotation
						JOINT joint_12
						{
							OFFSET 150.763062 48.206573 -278.419922
							CHANNELS 3 Zrotation Yrotation Xrotation
							JOINT joint_13
							{
								OFFSET 12.571289 -162.355251 152.253906
								CHANNELS 3 Zrotation Yrotation Xrotation
								End Site
								{
									OFFSET 0.000000 0.000000 0.000000
								}
							}
						}
					}
				}
			}
		}
	}
	JOINT joint_14
	{
		OFFSET -7.600342 -77.970001 -95.010986
		CHANNELS 3 Zrotation Yrotation Xrotation
		JOINT joint_15
		{
			OFFSET -2.666199 -21.455009 -443.700989
			CHANNELS 3 Zrotation Yrotation Xrotation
			JOINT joint_16
			{
				OFFSET -22.487976 -19.310196 -481.059006
				CHANNELS 3 Zrotation Yrotation Xrotation
				JOINT joint_17
				{
					OFFSET 177.776611 65.723053 -82.445997
					CHANNELS 3 Zrotation Yrotation Xrotation
					End Site
					{
						OFFSET 0.000000 0.000000 0.000000
					}
				}
			}
		}
	}
	JOINT joint_18
	{
		OFFSET 17.063904 75.900681 -95.447021
		CHANNELS 3 Zrotation Yrotation Xrotation
		JOINT joint_19
		{
			OFFSET -21.510803 8.101997 -443.629944
			CHANNELS 3 Zrotation Yrotation Xrotation
			JOINT joint_20
			{
				OFFSET -7.473022 -28.501774 -481.230011
				CHANNELS 3 Zrotation Yrotation Xrotation
				JOINT joint_21
				{
					OFFSET 177.760559 -64.115177 -83.737001
					CHANNELS 3 Zrotation Yrotation Xrotation
					End Site
					{
						OFFSET 0.000000 0.000000 0.000000
					}
				}
			}
		}
	}
}
MOTION
Frames: 6
Frame Time: 0.016667
-530.073303 -50.698566 1145.189941 10.186206 8.426179 -0.187756 0.749727 5.067417 -1.407075 1.334775 -0.460814 0.421211 1.196164 1.159821 -0.363405 1.389427 -4.970903 -3.900141 0.000000 0.000000 0.000000 3.343817 -4.232872 4.712424 15.536846 -1.357144 -18.155576 13.086074 2.983486 -29.472673 0.000000 0.000000 0.000000 -8.413067 1.934162 0.190303 6.084464 3.877906 0.766039 2.219906 1.708677 -5.902064 0.000000 0.000000 0.000000 -6.765666 -7.528589 4.025826 -8.025340 17.854136 -6.402719 -8.017088 1.791910 -4.138565 0.000000 0.000000 0.000000 -6.832059 -7.532427 2.933079 -6.541738 16.864380 5.394836 -5.410929 -3.118965 -3.464935 0.000000 0.000000 0.000000 
-524.747620 -47.647404 1144.978027 10.276941 8.282342 0.077280 0.758202 5.053330 -1.421495 1.350919 -0.461259 0.403249 1.214347 1.161948 -0.357680 1.424806 -5.086153 -4.072243 0.000000 0.000000 0.000000 3.331274 -4.125071 4.688118 15.512853 -1.311961 -17.942469 13.020929 3.449151 -29.139047 0.000000 0.000000 0.000000 -8.378454 1.970916 0.040098 5.791886 3.974936 0.006467 2.866018 2.336992 -5.093389 0.000000 0.000000 0.000000 -6.828106 -7.767486 3.857507 -8.155474 18.939304 -6.995592 -8.215895 1.856316 -4.227264 0.000000 0.000000 0.000000 -7.550666 -7.935568 2.644651 -7.251544 18.610679 5.434313 -6.150551 -3.966669 -4.064261 0.000000 0.000000 0.000000 
-520.243469 -43.926899 1144.817993 10.331079 8.138310 0.317194 0.663675 5.227407 -1.226411 1.277714 -0.503548 0.303941 1.151863 1.230385 -0.284570 1.473390 -5.346474 -4.204113 0.000000 0.000000 0.000000 3.561599 -4.139018 4.573752 15.602166 -1.401731 -17.721998 12.988645 4.030887 -29.029566 0.000000 0.000000 0.000000 -8.051667 1.909321 -0.225652 5.392739 3.896919 -0.672023 3.458210 2.927707 -4.127813 0.000000 0.000000 0.000000 -6.875141 -8.049998 3.688539 -8.287991 20.024181 -7.615245 -8.436823 1.920161 -4.323770 0.000000 0.000000 0.000000 -8.264827 -8.514042 2.353148 -7.965147 20.715732 5.458340 -6.948350 -5.069792 -4.767048 0.000000 0.000000 0.000000 
-515.822205 -39.853905 1144.567017 10.359916 8.011873 0.541927 0.544711 5.446096 -0.983713 1.194185 -0.546568 0.199979 1.080914 1.304525 -0.204224 1.528704 -5.710862 -4.312149 0.000000 0.000000 0.000000 3.819472 -4.133897 4.459852 15.671740 -1.492124 -17.455690 12.943720 4.482075 -29.009001 0.000000 0.000000 0.000000 -7.677534 1.847388 -0.471264 5.032257 3.790776 -1.189447 3.893578 3.368765 -3.328271 0.000000 0.000000 0.000000 -6.922656 -8.284697 3.500367 -8.423984 20.988290 -8.186527 -8.675570 1.990453 -4.429611 0.000000 0.000000 0.000000 -8.634330 -9.219004 2.099101 -8.341207 22.952551 5.596654 -7.394161 -6.140112 -5.298044 0.000000 0.000000 0.000000 
-510.946899 -35.607758 1144.063965 10.353011 7.910093 0.760108 0.453199 5.595728 -0.796841 1.145724 -0.549605 0.146233 1.041963 1.336097 -0.157736 1.589787 -6.184589 -4.416458 0.000000 0.000000 0.000000 3.980783 -3.989982 4.410441 15.619498 -1.474994 -17.091342 12.854018 4.590581 -28.999603 0.000000 0.000000 0.000000 -7.390561 1.857676 -0.604859 4.817486 3.757110 -1.460652 4.064639 3.547357 -2.950890 0.000000 0.000000 0.000000 -6.988417 -8.408945 3.278535 -8.570863 21.762242 -8.665424 -8.939340 2.041384 -4.538687 0.000000 0.000000 0.000000 -8.382211 -10.015193 1.875459 -8.103914 25.230409 6.083983 -7.053451 -7.042465 -5.437277 0.000000 0.000000 0.000000 
-505.894470 -31.068632 1143.359009 10.300551 7.826253 0.953948 0.359859 5.729729 -0.577700 1.106010 -0.527038 0.099391 1.013228 1.345950 -0.122299 1.658399 -6.783733 -4.512126 0.000000 0.000000 0.000000 4.126916 -3.759825 4.397909 15.491661 -1.394245 -16.652502 12.738860 4.448758 -29.050318 0.000000 0.000000 0.000000 -7.100078 1.903850 -0.676923 4.693485 3.742523 -1.519095 4.010799 3.505629 -2.875036 0.000000 0.000000 0.000000 -7.062958 -8.457637 3.046495 -8.726637 22.393718 -9.084936 -9.230797 2.064874 -4.648447 0.000000 0.000000 0.000000 -7.662566 -10.904563 1.669671 -7.413748 27.592976 6.944730 -6.030295 -7.869712 -5.273816 0.000000 0.000000 0.000000 
